<?xml version="1.0" standalone="no"?>
<!DOCTYPE svg PUBLIC "-//W3C//DTD SVG 1.1//EN" "http://www.w3.org/Graphics/SVG/1.1/DTD/svg11.dtd" >
<svg xmlns="http://www.w3.org/2000/svg">
<metadata>Generated by IcoMoon</metadata>
<defs>
<font id="icomoon" horiz-adv-x="1024">
<font-face units-per-em="1024" ascent="960" descent="-64" />
<missing-glyph horiz-adv-x="1024" />
<glyph unicode="&#x20;" horiz-adv-x="512" d="" />
<glyph unicode="&#xe900;" glyph-name="d" d="M342.768 93.504c-121.712 57.312-208.8 175.68-222.208 315.616h-55.824c18.976-229.28 210.672-409.424 444.8-409.424l24.56 1.12-141.824 141.808-49.504-49.12zM375.888 336.176c-7.056 0-13.76 1.12-19.344 2.976-5.952 2.24-10.8 4.848-14.88 8.928-4.162 3.722-7.454 8.328-9.591 13.53l-0.089 0.246c-2.127 5.011-3.363 10.838-3.363 16.954 0 0.188 0.001 0.375 0.003 0.562v-0.028h-48.384c0-13.392 2.608-25.296 7.824-35.36 5.329-10.125 12.315-18.659 20.692-25.568l0.14-0.112c8.687-6.605 18.854-11.823 29.863-15.079l0.665-0.169c10.457-3.552 22.501-5.602 35.025-5.602 0.247 0 0.494 0.001 0.741 0.002h-0.038c13.76 0 26.8 1.872 38.336 5.6 11.871 3.649 22.166 9.247 31.061 16.498l-0.165-0.13c8.686 7.164 15.623 16.125 20.292 26.34l0.188 0.46c4.832 10.8 7.44 22.72 7.44 36.112 0 7.072-0.752 14.144-2.608 20.832-1.916 7.221-4.853 13.549-8.699 19.209l0.139-0.217c-3.728 5.952-8.928 11.168-14.88 16-6.336 4.832-13.776 8.56-22.72 11.536 7.456 3.36 13.776 7.456 19.36 12.288s10.048 10.048 13.76 15.632c3.357 4.922 6.147 10.598 8.080 16.656l0.128 0.464c1.856 5.952 2.592 11.904 2.592 17.872 0 13.392-2.24 25.312-6.688 35.728-4.327 10.258-10.792 18.87-18.883 25.592l-0.109 0.088c-7.44 7.072-17.488 12.288-28.64 16-11.165 3.312-23.992 5.218-37.265 5.218-0.253 0-0.505-0.001-0.758-0.002h0.039c-13.392 0-25.68-1.856-37.216-5.952-11.168-4.096-21.216-9.68-29.408-16.752-7.707-6.946-14.067-15.212-18.757-24.467l-0.219-0.477c-4.236-9.047-6.708-19.646-6.708-30.822 0-0.285 0.002-0.569 0.005-0.853v0.043h48.384c0 6.32 1.12 11.904 3.36 16.752 2.24 4.832 5.2 9.296 9.296 12.64 4.096 3.36 8.56 6.336 14.144 8.208 5.293 1.886 11.398 2.976 17.757 2.976 0.040 0 0.081 0 0.121 0h-0.006c14.88 0 26.048-3.728 33.12-11.552 7.072-7.44 10.8-18.24 10.8-32 0-6.704-1.12-12.656-2.976-18.24-1.948-5.489-5.15-10.123-9.274-13.728l-0.038-0.032c-4.306-3.787-9.377-6.829-14.936-8.855l-0.328-0.105c-5.952-2.224-13.392-3.344-21.584-3.344h-28.656v-38.336h28.656c8.192 0 15.632-0.736 22.336-2.592 6.704-1.872 12.288-4.848 16.752-8.56 4.464-4.096 8.192-8.944 10.784-14.896 2.608-5.952 3.728-13.024 3.728-21.216 0-15.264-4.48-26.8-13.024-34.608-8.56-8.56-20.48-12.288-35.36-12.288zM694.128 556.528c-11.719 12.099-25.836 21.797-41.595 28.338l-0.821 0.302c-16 6.72-34.24 10.064-54.352 10.064h-87.84v-297.76h85.6c20.48 0 39.456 3.344 56.208 10.048 16.752 6.688 31.264 16 43.184 28.288 11.828 12.297 21.197 27.054 27.254 43.418l0.282 0.87c6.336 17.488 9.68 36.848 9.68 58.432v14.88c0 21.6-3.36 40.96-9.68 58.448-6.688 17.488-16 32.384-27.904 44.672zM679.616 438.896c0-15.632-1.856-29.392-5.2-42.048-3.728-12.288-8.944-23.088-16-31.648-7.088-8.56-16-15.248-26.432-19.728-10.8-4.464-23.088-6.688-36.848-6.688h-33.872v214.752h36.096c26.8 0 47.28-8.56 61.040-25.68 14.144-17.12 21.216-41.68 21.216-74.064v-14.88zM509.536 892.992l-24.576-1.12 141.808-141.808 49.504 49.504c121.712-57.68 208.8-175.68 221.84-315.632h55.84c-18.64 228.912-210.32 409.056-444.448 409.056z" />
<glyph unicode="&#xe901;" glyph-name="home" d="M979.775 443.243c0.271 9.782-4.69 20.431-13.949 29.474l-418.98 409.423c-19.272 18.844-50.552 18.844-69.823 0l-418.982-409.424c-10.504-10.261-15.995-21.627-14.211-32.055-0.121-0.895-0.204-1.801-0.204-2.728 0-11.49 9.529-20.807 21.293-20.807h110.525c-2.79-6.103-4.063-13.175-4.063-20.723v-353.805c0-22.981 19.064-41.612 42.585-41.612h596.197c23.521 0 42.585 18.63 42.585 41.612v353.805c0.288 8.266-0.705 15.118-2.858 20.723h109.319c11.762 0 21.293 9.318 21.293 20.807 0 1.838-0.268 3.611-0.727 5.31zM810.162 84.215c0-22.987-19.064-41.617-42.585-41.617h-511.027c-23.521 0-42.585 18.63-42.585 41.617v353.8c-0.001 0-0.003 0-0.004 0-0.046 11.451-9.554 20.725-21.288 20.725h-85.059l369.408 360.984c19.272 18.837 50.552 18.837 69.823-0.007l369.407-360.975h-84.797c-11.735 0-21.243-9.274-21.288-20.725-0.001 0-0.003 0-0.004 0v-353.801z" />
<glyph unicode="&#xe902;" glyph-name="search" d="M718.507 310.443c43.691 58.027 69.973 130.048 69.973 208.555 0 191.488-155.989 347.477-347.477 347.477s-347.477-155.989-347.477-347.477 156.331-347.477 347.819-347.477c78.165 0 150.187 26.283 208.555 69.973l211.627-211.627 68.949 68.949-211.968 211.627zM441.344 268.8c-137.899 0-250.197 112.299-250.197 250.197 0 137.557 112.299 249.856 250.197 249.856s249.856-112.299 249.856-249.856c0-138.24-111.957-250.197-249.856-250.197z" />
<glyph unicode="&#xe903;" glyph-name="wode" d="M912.496 35.518c-0.015 183.814-123.745 338.666-292.345 385.658 78.531 39.461 132.438 120.82 132.438 214.802 0 132.656-107.39 240.195-239.861 240.195-132.473 0-239.861-107.539-239.861-240.195 0-93.982 53.907-175.341 132.438-214.801-168.611-46.995-292.346-201.862-292.346-385.691 0-0.001 0-0.001 0-0.003 0-11.053 8.949-20.015 19.988-20.015s19.988 8.962 19.988 20.015c0 0.001 0 0.001 0 0.003 0 198.988 161.085 360.297 359.791 360.297 198.708 0 359.794-161.309 359.794-360.297v0c0-0.001 0-0.001 0-0.003 0-11.053 8.95-20.015 19.988-20.015 11.039 0 19.99 8.962 19.99 20.015-0.001 0.012-0.003 0.023-0.003 0.035zM312.844 635.978c0 110.546 89.491 200.163 199.885 200.163s199.885-89.617 199.885-200.163c0-110.547-89.491-200.161-199.885-200.161s-199.885 89.614-199.885 200.161z" />
<glyph unicode="&#xe904;" glyph-name="xiaoxi" d="M910.222 49.778h-796.444c-31.377 0.097-56.776 25.555-56.776 56.946 0 18.506 8.828 34.951 22.503 45.352l0.14 0.102 91.022 68.267v284.444c0 188.245 153.088 341.333 341.333 341.333s341.333-153.088 341.333-341.333v-284.444l91.022-68.21c13.967-10.439 22.911-26.931 22.911-45.513 0-12.904-4.314-24.801-11.577-34.326l0.101 0.138c-10.752-14.279-27.819-22.756-45.568-22.756zM512 789.333c-156.843 0-284.444-127.602-284.444-284.444v-312.889l-113.778-85.333 796.501 0.057-113.835 85.276v312.889c0 156.843-127.602 284.444-284.444 284.444zM625.778 789.333h-227.556v56.889c0 62.748 51.029 113.778 113.778 113.778s113.778-51.029 113.778-113.778v-56.889zM455.111 846.222h113.778c-1.399 30.336-26.334 54.401-56.889 54.401s-55.49-24.065-56.884-54.276l-0.005-0.125zM512-64c-82.108 0.212-150.615 58.18-167.054 135.412l-0.2 1.121-6.94 34.133h348.388l-6.884-34.133c-16.643-78.372-85.179-136.349-167.29-136.533h-0.020zM413.468 49.778c19.911-34.361 57.173-56.889 98.532-56.889 41.415 0 78.677 22.528 98.532 56.889h-197.063z" />
<glyph unicode="&#xe905;" glyph-name="local" d="M512.103 639.879c58.598-0.088 106.067-47.611 106.067-106.222 0-58.665-47.557-106.222-106.222-106.222s-106.222 47.557-106.222 106.222c0 29.212 11.792 55.669 30.875 74.873l-0.005-0.006c19.246 19.367 45.899 31.355 75.352 31.355 0.054 0 0.109 0 0.163 0h-0.008zM512.103 703.868c-94.247-0.148-170.592-76.583-170.592-170.85 0-94.358 76.492-170.851 170.851-170.851s170.851 76.492 170.851 170.851c0 47.243-19.175 90.008-50.168 120.936l-0.003 0.003c-30.711 30.834-73.203 49.913-120.151 49.913-0.277 0-0.554-0.001-0.831-0.002h0.043zM805.173 835.685c-74.213 76.7-178.081 124.315-293.070 124.315s-218.856-47.615-292.962-124.203l-0.108-0.112c-75.004-77.498-121.23-183.245-121.23-299.788s46.226-222.291 121.343-299.906l-0.113 0.117 293.070-300.108 293.070 300.108c75.004 77.498 121.23 183.245 121.23 299.788s-46.226 222.291-121.343 299.906l0.113-0.117zM761.020 278.341l-248.917-255.956-248.917 255.956c-63.763 65.697-103.073 155.436-103.073 254.356s39.31 188.659 103.161 254.447l-0.088-0.091c63.107 64.988 151.303 105.316 248.917 105.316s185.81-40.328 248.835-105.231l0.082-0.085c63.763-65.697 103.073-155.436 103.073-254.356s-39.31-188.659-103.161-254.447l0.088 0.091z" />
<glyph unicode="&#xe906;" glyph-name="fanhui" d="M766.862-61.724c-10.24 0-20.594 3.641-28.444 10.923l-509.724 472.405c-15.701 14.564-15.701 38.229 0 52.793l509.724 472.405c15.701 14.564 41.188 14.564 56.889 0s15.701-38.229 0-52.793l-481.28-446.009 481.28-446.009c15.701-14.564 15.701-38.229 0-52.793-7.851-7.282-18.204-10.923-28.444-10.923z" />
<glyph unicode="&#xe907;" glyph-name="Footprint" d="M388.267 290.133c-4.267 0-8.533 0-12.8 4.267-8.533 8.533-8.533 21.333 0 29.867l119.467 132.267v166.4c0 12.8 8.533 21.333 21.333 21.333s21.333-8.533 21.333-21.333v-174.933c0-4.267 0-8.533-4.267-12.8l-123.733-136.533c-8.533-4.267-17.067-8.533-21.333-8.533zM512 106.667c-187.733 0-341.333 153.6-341.333 341.333s153.6 341.333 341.333 341.333 341.333-153.6 341.333-341.333-153.6-341.333-341.333-341.333zM512 746.667c-166.4 0-298.667-132.267-298.667-298.667s132.267-298.667 298.667-298.667 298.667 132.267 298.667 298.667-132.267 298.667-298.667 298.667z" />
<glyph unicode="&#xe908;" glyph-name="msssage" d="M696.203 149.044c-3.123 0.018-6.087-0.496-8.684-1.561h-0.085c-2.077-0.859-4.060-2.245-5.779-4.133l-127.562-140.087c-1.41-1.542-2.898-3.038-4.393-4.375-11.837-10.583-27.236-15.951-42.466-15.969-15.303-0.018-30.721 5.301-42.575 16.073l-0.17 0.176c-1.204 1.113-2.578 2.516-4.15 4.272l-123.447 137.819c-1.458 1.628-3.328 2.832-5.423 3.618-3.019 1.149-6.486 1.748-10.069 1.906h-0.085c-33.481 1.609-57.479 1.712-83.161 1.797h-0.085c-32.827 0.121-68.437 0.278-125.899 3.244v-0.036c-31.302 0-59.828 12.883-80.497 33.535l-0.054-0.049c-20.646 20.652-33.481 49.175-33.481 80.545v507.495c0 31.283 12.847 59.808 33.481 80.462l0.054 0.036 0.036 0.049c20.652 20.634 49.175 33.481 80.462 33.481h795.779c31.369 0 59.893-12.829 80.545-33.481l-0.049-0.049c20.646-20.671 33.53-49.196 33.53-80.497v-507.495c0-31.369-12.829-59.893-33.481-80.545s-49.175-33.486-80.545-33.486v0.071c-50.932-0.999-94.651-1.7-129.281-2.16-42.433-0.569-70.958-0.756-82.467-0.654v0zM771.466 544.462c-24.065 0-43.568-19.503-43.568-43.568s19.502-43.568 43.568-43.568 43.568 19.503 43.568 43.568-19.502 43.568-43.568 43.568v0zM510.060 544.462c-24.065 0-43.568-19.503-43.568-43.568s19.503-43.568 43.568-43.568 43.568 19.503 43.568 43.568-19.503 43.568-43.568 43.568v0zM248.656 544.462c-24.065 0-43.568-19.503-43.568-43.568s19.503-43.568 43.568-43.568 43.568 19.503 43.568 43.568-19.503 43.568-43.568 43.568v0zM670.867 187.619l-0.018 0.036c7.946 3.292 16.671 4.852 25.698 4.781 11.212-0.085 39.417 0.102 81.611 0.653 34.098 0.448 77.721 1.167 129.366 2.179l0.43 0.085c19.344 0 36.96 7.946 49.74 20.724 12.78 12.773 20.719 30.394 20.719 49.74v507.497c0 19.399-7.908 37.033-20.634 49.74h-0.085c-12.78 12.78-30.394 20.719-49.74 20.719h-795.778c-19.399 0-37.033-7.903-49.746-20.634l-0.085-0.085c-12.726-12.707-20.634-30.34-20.634-49.74v-507.495c0-19.344 7.946-36.966 20.719-49.74v-0.091c12.713-12.726 30.346-20.634 49.746-20.634l1.095-0.085c58.338-3.038 92.986-3.189 124.889-3.292h0.091c26.758-0.102 51.778-0.206 85.126-1.804 8.162-0.394 16.175-1.779 23.569-4.61 8.35-3.189 15.998-8.133 22.467-15.388l-0.049-0.036 123.327-137.782 1.234-1.187c3.564-3.244 8.435-4.852 13.312-4.852 4.956 0 9.911 1.683 13.549 4.918l1.269 1.252-0.054 0.036 127.477 140.087c6.105 6.686 13.33 11.659 21.389 15.005z" />
<glyph unicode="&#xe909;" glyph-name="callRecords" d="M625.347 781.772h288.031v-36.083h-288.031v36.083zM628.177 778.939h282.371v-30.42h-282.371v30.42zM625.347 639.699h288.031v-36.083h-288.031v36.083zM628.177 636.869h282.371v-30.42h-282.371v30.42zM625.347 496.091h288.031v-36.083h-288.031v36.083zM628.177 493.261h282.371v-30.42h-282.371v30.42zM513.856 766.289c0-16.417 13.305-29.725 29.725-29.725 16.41 0 29.72 13.31 29.72 29.725s-13.31 29.723-29.72 29.723c-16.42 0-29.725-13.308-29.725-29.723zM513.856 624.219c0-16.417 13.305-29.725 29.725-29.725 16.41 0 29.72 13.31 29.72 29.725s-13.31 29.723-29.72 29.723c-16.42 0-29.725-13.308-29.725-29.723zM513.856 480.609c0-16.415 13.305-29.723 29.725-29.723 16.41 0 29.72 13.307 29.72 29.723s-13.31 29.725-29.72 29.725c-16.42 0-29.725-13.31-29.725-29.725zM646.072 246.368l-86.825 125.74c-14.965 23.95-39.785 24.815-60.745 9.85l-56.883-35.93h-5.985l-2.993-2.99c-5.99 0-38.058 11.11-106.913 106.91-59.878 89.815-54.758 130.863-51.763 142.838 5.99 0 5.99 2.993 5.99 2.993l59.875 38.92c20.958 11.975 24.818 36.798 9.847 60.748l-78.708 119.75-5.12 2.995c0 0-9.848 11.975-33.798 11.975s-47.903-19.22-74.848-40.177l-5.985-2.995c-50.898-77.84-57.753-160.41-57.753-166.395v-5.99c20.955-98.795 68.858-179.631 104.785-233.521l29.935-41.91c38.923-56.885 103.053-125.745 183.888-179.635l2.988-2.99c2.995 0 38.535-12.845 104.398-12.845 23.95 0 44.905 2.995 65.865 5.985l5.985 2.995c74.853 47.899 54.763 93.679 54.763 93.679v0zM576.341 177.513c-17.96-2.995-35.92-5.995-56.88-5.995-53.89 0-98.795 11.98-107.778 14.97-80.835 56.885-131.728 125.74-173.643 182.625l-8.983 11.975c-32.933 50.895-86.823 134.725-110.77 236.516 2.99 17.963 14.968 95.803 56.883 158.673 47.903 35.93 68.858 23.953 74.843 20.958l80.838-119.755c5.985-8.98 2.99-17.96-5.988-23.95l-56.885-35.925c-2.995-2.992-11.975-8.982-17.963-20.958-11.975-32.93 5.988-86.823 59.878-167.653 53.89-77.84 92.805-113.77 125.74-113.77 11.975 0 20.96 5.99 23.948 11.98l53.895 35.925c8.975 5.985 17.96 2.995 23.95-5.99l83.825-119.755c0.001-5.986 0.001-32.931-44.91-59.871v0z" />
<glyph unicode="&#xe90a;" glyph-name="Collection" d="M752 20.8c-9.6 0-20.8 3.2-30.4 8l-208 104-209.6-104c-20.8-11.2-48-9.6-67.2 4.8s-30.4 40-25.6 64l43.2 224-164.8 153.6c-17.6 17.6-24 44.8-17.6 67.2 8 24 27.2 41.6 52.8 44.8l228.8 41.6 102.4 208c11.2 22.4 33.6 36.8 57.6 36.8s48-14.4 57.6-36.8l102.4-208 228.8-40c24-3.2 44.8-20.8 51.2-44.8 8-24 1.6-49.6-16-67.2l-164.8-155.2 41.6-224c4.8-25.6-6.4-49.6-25.6-64-9.6-8-22.4-12.8-36.8-12.8z" />
<glyph unicode="&#xe90b;" glyph-name="setting" d="M888.832 579.072l4.096-10.24-83.968-104.448c-8.192-10.24-8.192-26.624 0-36.864l83.968-100.352-4.096-10.24c-14.336-45.056-36.864-86.016-67.584-122.88l-8.192-10.24-129.024 20.48c-12.288 2.048-26.624-6.144-30.72-18.432l-45.056-131.072-10.24-2.048c-57.344-12.288-116.736-12.288-172.032 0l-12.288 2.048-40.96 129.024c-4.096 12.288-18.432 20.48-30.72 18.432l-133.12-20.48-8.192 8.192c-14.336 16.384-26.624 34.816-36.864 53.248-12.288 22.528-22.528 45.056-30.72 69.632l-4.096 10.24 86.016 102.4c8.192 10.24 8.192 26.624 0 36.864l-86.016 104.448 4.096 10.24c16.384 45.056 38.912 88.064 69.632 124.928l8.192 8.192 129.024-20.48c12.288-2.048 26.624 6.144 32.768 18.432l45.056 126.976 10.24 2.048c55.296 12.288 112.64 12.288 169.984 0l12.288-2.048 40.96-122.88c4.096-12.288 18.432-22.528 30.72-20.48l131.072 16.384 8.192-8.192c14.336-16.384 26.624-34.816 36.864-53.248 12.288-20.48 22.528-43.008 30.72-67.584zM821.248 628.224c-8.192 14.336-16.384 26.624-26.624 38.912l-108.544-14.336c-32.768-4.096-65.536 16.384-75.776 47.104l-34.816 100.352c-43.008 8.192-86.016 8.192-129.024 0l-36.864-104.448c-10.24-30.72-45.056-51.2-77.824-45.056l-104.448 16.384c-22.528-28.672-38.912-59.392-51.2-92.16l71.68-86.016c20.48-24.576 20.48-63.488 0-90.112l-71.68-83.968c6.144-18.432 14.336-34.816 24.576-51.2 8.192-14.336 16.384-26.624 26.624-38.912l110.592 16.384c32.768 4.096 65.536-16.384 75.776-47.104l34.816-104.448c43.008-8.192 88.064-8.192 133.12 0l36.864 108.544c10.24 30.72 45.056 51.2 75.776 45.056l104.448-16.384c20.48 26.624 36.864 57.344 49.152 90.112l-69.632 81.92c-20.48 24.576-22.528 63.488-2.048 90.112l69.632 88.064c-6.144 16.384-14.336 34.816-24.576 51.2zM512 304.64c-79.872 0-143.36 63.488-143.36 143.36s63.488 143.36 143.36 143.36 143.36-63.488 143.36-143.36-63.488-143.36-143.36-143.36zM512 345.6c57.344 0 102.4 45.056 102.4 102.4s-45.056 102.4-102.4 102.4-102.4-45.056-102.4-102.4 45.056-102.4 102.4-102.4z" />
<glyph unicode="&#xe90c;" glyph-name="more" d="M492.676 55.182l393.020 393.020-393.020 393.020c-12.258 12.259-12.432 32.893 0.187 45.511 12.708 12.708 32.996 12.704 45.512 0.188l411.66-411.661c7.12-7.12 10.164-17.066 8.991-26.625 1.5-9.755-1.51-20.010-8.99-27.49l-411.661-411.66c-12.258-12.259-32.892-12.433-45.512 0.187-12.707 12.707-12.703 32.995-0.187 45.51z" />
<glyph unicode="&#xe90d;" glyph-name="yonghu" d="M940.765 179.961l-291.817 145.833 90.832 132.146c3.094 4.459 4.944 9.985 4.947 15.942v199.186c0 125.52-100.671 223.842-229.188 223.842-128.53 0-229.202-98.321-229.202-223.842v-199.185c0-0.002 0-0.005 0-0.008 0-6.115 1.951-11.775 5.265-16.39l-0.057 0.084 93.567-131.554-304.518-145.847c-9.772-4.673-15.984-14.555-15.984-25.384v-126.414c0-15.544 12.603-28.147 28.147-28.147h835.419c15.543 0 28.146 12.603 28.146 28.147v126.413c0 0.003 0 0.006 0 0.009 0 10.954-6.26 20.447-15.397 25.095l-0.16 0.074zM457.43 222.264l-70.89-30.002-16.768 63.989 19.985 9.572 67.673-43.559zM517.935 186.754l62.166-26.32-36.055-103.918h-61.264l-34.897 100.582 70.050 29.656zM578.443 222.264l66.317 42.686 20.882-10.436-16.324-62.252-70.875 30.002zM342.63 482.87v190.198c0 93.952 75.947 167.549 172.909 167.549 96.947 0 172.894-73.597 172.894-167.549v-190.444l-104.204-151.607c-3.096-4.46-4.946-9.988-4.946-15.948 0-2.499 0.325-4.922 0.936-7.229l-0.044 0.197c1.342-5.097 3.93-9.473 7.423-12.939l0.002-0.002-69.663-44.833-70.29 45.237c3.292 3.389 5.739 7.615 6.991 12.329l0.044 0.196c0.568 2.113 0.894 4.539 0.894 7.042 0 6.121-1.952 11.786-5.268 16.407l0.058-0.084-107.735 151.481zM120.904 137.054l197.167 94.434 22.264-84.964c2.154-8.016 7.541-14.49 14.64-18.054l0.162-0.074c3.623-1.821 7.896-2.887 12.418-2.887 3.963 0 7.735 0.819 11.156 2.297l-0.183-0.070 17.402 7.368 27.266-78.587h-302.292v80.537zM900.029 56.516h-296.395l28.423 81.92 25.274-10.7c3.238-1.408 7.010-2.227 10.973-2.227 4.522 0 8.794 1.066 12.58 2.961l-0.163-0.074c7.264 3.635 12.651 10.11 14.757 17.93l0.045 0.197 21.57 82.279 182.935-91.418v-80.868z" />
<glyph unicode="&#xe90e;" glyph-name="wenjuantiaocha1" d="M295.294 412.548c-10.867 0-19.674-8.794-19.674-19.644s8.808-19.646 19.674-19.646h196.737c10.865 0 19.673 8.795 19.673 19.645s-8.808 19.644-19.673 19.644h-196.737zM582.936 529.308h-291.141c-8.933 0-16.175-8.795-16.175-19.645s7.242-19.644 16.175-19.644h291.142c8.932 0 16.174 8.795 16.174 19.644 0 10.851-7.241 19.646-16.174 19.646zM649.423 607.886c10.864 0 19.673 8.795 19.673 19.644s-8.808 19.644-19.673 19.644h-354.129c-10.867 0-19.674-8.794-19.674-19.644s8.808-19.645 19.674-19.645h354.129zM787.14 882.912h-550.868c-65.193 0-118.042-52.77-118.042-117.868v-628.632c0-65.094 52.85-117.87 118.042-117.87h354.129v39.291h-354.129c-43.462 0-78.696 35.185-78.696 78.579v628.632c0 43.399 35.233 78.579 78.696 78.579h550.868c43.462 0 78.695-35.18 78.695-78.579v-333.961h39.349v333.961c0 65.099-52.851 117.868-118.043 117.868zM862.067 377.285h0.005c-23.461 20.716-54.947 31.076-94.603 31.076-37.661 0-68.115-10.224-91.307-30.668-23.186-20.442-36.702-48.633-37.455-74.635-0.753-25.998 61.051-20.577 63.318-7.75 2.402 13.581 12.553 35.537 24.354 45.479 11.795 9.951 26.474 14.959 44.042 14.959 18.176 0 32.721-4.803 43.42-14.341 10.704-9.602 16.121-21.060 16.121-34.435 0-9.608-3.085-18.454-9.12-26.481-3.916-5.073-15.987-15.776-36.090-32.171-20.098-16.327-33.547-31.077-40.266-44.177-6.726-13.103-10.085-29.772-10.085-50.075 0-1.992 0.137-7.479 0.272-16.47h62.701c-0.344 19.002 1.305 32.178 4.804 39.516 3.498 7.407 12.553 17.151 27.095 29.222 28.127 23.396 46.445 41.844 55.087 55.428 8.575 13.584 12.895 27.993 12.832 43.222 0.001 27.505-11.665 51.586-35.128 72.301zM766.102 103.913c-24.357 0-44.047-19.345-44.047-43.152 0-23.804 19.758-43.151 44.047-43.151 24.349 0 44.038 19.346 44.038 43.151 0 23.806-19.758 43.152-44.038 43.152z" />
<glyph unicode="&#xe90f;" glyph-name="fangchan" horiz-adv-x="1118" d="M1007.262 541.296c-3.868 0.010-7.4 1.44-10.105 3.796l0.019-0.016-435.92 378.285-229.847-200.459v137.993h-72.754l0.134-201.287-131.015-114.309c-2.697-2.36-6.252-3.799-10.143-3.799-8.527 0-15.44 6.913-15.44 15.44 0 4.636 2.044 8.796 5.279 11.626l0.018 0.015 120.302 104.938v202.785c0.025 8.525 6.929 15.429 15.452 15.454h103.62c8.525-0.025 15.429-6.929 15.454-15.452v-85.459l188.718 164.608c2.692 2.354 6.238 3.789 10.12 3.789s7.429-1.435 10.138-3.804l-0.018 0.015 446.119-387.052c3.025-2.59 5.013-6.316 5.298-10.51l0.003-0.047c0.024-0.321 0.037-0.696 0.037-1.074 0-8.533-6.915-15.45-15.447-15.454v0zM1.185 158.695l165.838 152.732c36.209 24.154 78.837 36.388 126.788 36.388 0.509 0.004 1.11 0.006 1.712 0.006 24.593 0 48.384-3.432 70.92-9.843l-1.824 0.444c42.36-12.1 125.111-14.716 134.393-14.985h149.847c53.296 0 96.64-38.737 96.64-86.33s-43.344-86.352-96.64-86.352h-194.354v30.864h194.465c35.673 0 65.776 25.407 65.776 55.488s-30.104 55.466-65.776 55.466h-151.032c-9.55 0.246-94.963 2.796-142.176 16.282-18.129 5.059-38.948 7.967-60.445 7.967-0.514 0-1.027-0.002-1.541-0.005h0.079c-41.376 0-77.898-10.176-108.538-30.305l-0.895-0.559-162.506-149.847zM635.060 0.886c1.275 0 2.438 0.291 3.69 0.38l-5.591-0.157c0.581-0.045 1.252-0.224 1.901-0.224zM864.974 515.576l-303.25 269.926-301.796-270.261v-94.471c-12.042-1.261-22.562-2.947-32.892-5.148l2.028 0.362v106.145c0.002 4.561 1.982 8.659 5.13 11.483l0.014 0.013 317.206 284.038c2.714 2.427 6.317 3.91 10.266 3.91s7.551-1.483 10.281-3.923l-0.015 0.013 318.727-283.636c3.176-2.835 5.166-6.941 5.166-11.512 0-0.002 0-0.004 0-0.006v0-96.17l-30.864-16.058zM134.504-42.592c56.383 60.386 101.784 74.409 106.928 75.863l1.834 0.514 353.549 9.55 39.586 1.566 415.479 222.489c30.238 16.237 43.813 52.357 29.612 78.837-8.409 15.656-25.385 25.004-45.424 25.004-12.885-0.147-24.946-3.536-35.449-9.386l0.38 0.194-184.379-95.857c-2.199 11.458-5.293 21.56-9.327 31.171l0.381-1.022 178.922 92.995c14.286 7.951 31.307 12.697 49.423 12.86h0.049c31.58 0 58.753-15.477 72.665-41.353 22.499-41.935 3.556-96.17-42.203-120.638l-409.731-219.626c-5.465-3.184-11.874-5.427-18.707-6.324l-0.259-0.028-7.336-0.693-382.356-10.489-2.102-0.805c-10.4-4.070-46.072-20.263-88.387-65.15z" />
<glyph unicode="&#xe910;" glyph-name="xinfang" d="M234.667 469.333h106.667c23.564 0 42.667 19.103 42.667 42.667v0 170.667c0 23.564-19.103 42.667-42.667 42.667h-106.667c-23.564 0-42.667-19.103-42.667-42.667v0-170.667c0-23.564 19.103-42.667 42.667-42.667v0zM234.667 661.333c0 11.782 9.551 21.333 21.333 21.333h64c11.782 0 21.333-9.551 21.333-21.333v0-128c0-11.782-9.551-21.333-21.333-21.333v0h-64c-11.782 0-21.333 9.551-21.333 21.333v0zM1000.96 487.467l-467.627 270.080v117.12h21.333c11.782 0 21.333 9.551 21.333 21.333s-9.551 21.333-21.333 21.333v0h-533.333c-11.782 0-21.333-9.551-21.333-21.333s9.551-21.333 21.333-21.333v0h21.333v-810.667c0-47.128 38.205-85.333 85.333-85.333v0h768c47.128 0 85.333 38.205 85.333 85.333v0 385.92c2.249-0.88 4.853-1.391 7.576-1.391 11.782 0 21.333 9.551 21.333 21.333 0 7.28-3.646 13.708-9.212 17.558l-0.071 0.046zM341.333 21.333h-106.667v234.667c0 23.564 19.103 42.667 42.667 42.667h21.333c23.564 0 42.667-19.103 42.667-42.667v0zM490.667 21.333h-106.667v234.667c0 47.128-38.205 85.333-85.333 85.333v0h-21.333c-47.128 0-85.333-38.205-85.333-85.333v0-234.667h-64c-23.564 0-42.667 19.103-42.667 42.667v0 810.667h405.333zM789.333 21.333h-106.667v234.667c0 23.564 19.103 42.667 42.667 42.667h21.333c23.564 0 42.667-19.103 42.667-42.667v0zM938.667 64c0-23.564-19.103-42.667-42.667-42.667v0h-64v234.667c0 47.128-38.205 85.333-85.333 85.333v0h-21.333c-47.128 0-85.333-38.205-85.333-85.333v0-234.667h-106.667v686.933l405.333-234.667z" />
<glyph unicode="&#xe911;" glyph-name="jisuanqi" d="M535.814 455.144h-47.628c-16.67 0-28.577-14.288-28.577-30.958v-52.391c0-16.67 14.288-30.958 28.577-30.958h47.628c16.67 0 28.577 14.288 28.577 30.958v52.391c0 16.67-11.907 30.958-28.577 30.958zM673.935 421.805v-52.391c0-16.67 14.288-30.958 28.577-30.958h47.628c16.67 0 28.577 14.288 28.577 30.958v52.391c0 16.67-14.288 30.958-28.577 30.958h-47.628c-16.67 2.381-28.577-11.907-28.577-30.958zM750.14 274.158h-47.628c-16.67 0-28.577-14.288-28.577-30.958v-52.391c0-16.67 14.288-30.958 28.577-30.958h47.628c16.67 0 28.577 14.288 28.577 30.958v52.391c0 16.67-11.907 30.958-28.577 30.958zM535.814 274.158h-47.628c-16.67 0-28.577-14.288-28.577-30.958v-52.391c0-16.67 14.288-30.958 28.577-30.958h47.628c16.67 0 28.577 14.288 28.577 30.958v52.391c0 16.67-11.907 30.958-28.577 30.958zM821.581 940.949h-619.163c-54.772 0-100.019-47.628-100.019-109.544v-771.572c0-59.535 45.247-109.544 100.019-109.544h619.163c54.772 0 100.019 47.628 100.019 109.544v771.572c0 61.916-45.247 109.544-100.019 109.544zM159.553 833.786c0 26.195 19.051 45.247 42.865 45.247h619.163c23.814 0 42.865-21.433 42.865-45.247v-771.572c0-26.195-19.051-45.247-42.865-45.247h-619.163c-23.814 0-42.865 21.433-42.865 45.247v771.572zM273.86 159.851h47.628c16.67 0 28.577 14.288 28.577 30.958v52.391c0 16.67-14.288 30.958-28.577 30.958h-47.628c-16.67 0-28.577-14.288-28.577-30.958v-52.391c0-16.67 11.907-30.958 28.577-30.958zM273.86 338.456h47.628c16.67 0 28.577 14.288 28.577 30.958v52.391c0 16.67-14.288 30.958-28.577 30.958h-47.628c-16.67 0-28.577-14.288-28.577-30.958v-52.391c0-16.67 11.907-30.958 28.577-30.958zM369.116 581.358h285.767c42.865 0 76.205 35.721 76.205 76.205s-35.721 76.205-76.205 76.205h-285.767c-42.865 0-76.205-35.721-76.205-76.205s33.34-76.205 76.205-76.205z" />
<glyph unicode="&#xe912;" glyph-name="baike" d="M1022.675 874.646v-937.562h-851.124c-0.072 0-0.156 0-0.241 0-94.611 0-171.309 76.698-171.309 171.309 0 0.064 0 0.127 0 0.191v-0.010 679.876c0 0.072 0 0.156 0 0.241 0 94.611 76.698 171.309 171.309 171.309 0.085 0 0.17 0 0.254 0h680.646v-681.773h-679.574c-48.108-0.238-87.043-39.173-87.281-87.258v-81.009c0.238-48.108 39.173-87.043 87.258-87.281h764.951v851.968h85.082zM852.209 192.873h-681.743v-85.082h681.773v85.082z" />
<glyph unicode="&#xe913;" glyph-name="yezhu" d="M792 2.1h166v208l-198.2 147.1-198.2-147.2v-208h166c-0.5 2.4-0.8 4.8-0.8 7.3v124.8c0 18.2 14.8 33 33 33s33-14.8 33-33v-124.8c0-2.4-0.2-4.9-0.8-7.2zM380.8 476.6c-121 81.6-153 245.8-71.4 366.8s245.8 153 366.8 71.4 153-245.8 71.4-366.8c-49.1-72.9-131.2-116.6-219.1-116.6-255.4 0-462.4-207-462.4-462.4 0-18.2-14.8-33-33-33s-33 14.8-33 33c-0.1 235.1 155.1 441.8 380.7 507.6zM528.5 497.5c109.4 0 198.2 88.7 198.2 198.2s-88.7 198.2-198.2 198.2-198.2-88.7-198.2-198.2 88.8-198.2 198.2-198.2zM508.8 253.2l231.2 171.8c11.7 8.7 27.7 8.7 39.5 0l231.2-171.8c8.4-6.2 13.3-16.1 13.3-26.5v-257.7c0-18.2-14.8-33-33-33h-462.5c-18.2 0-33 14.8-33 33v257.7c0 10.4 5 20.3 13.3 26.5z" />
</font>
</defs>
</svg>
